<?xml version="1.0" encoding="UTF-8"?>
<svg id="Layer_1" data-name="Layer 1" xmlns="http://www.w3.org/2000/svg" viewBox="0 0 800 800">
  <path d="M453,241c-7,29-7.37,51.02-7.37,51.02l-14.64,44.02-30.94,19.96-52.06,17-68,27-59,62,6,25-27,33-53,50.74-44,95.26,27,70,61.68,36,443.32-9,60-71-21-92-71-90.9-21-71.1-34-38-9.24-71-29.76-51-56-37Z" style="fill: #5c3700;"/>
  <g>
    <path d="M695.8,624.11c-25.16-57.85-65.96-97.2-78.96-108.9,1.19-40.44-16.7-80.87-51.53-113.9-1.67-1.67-3.22-2.98-4.53-4.17,5.25-42.82-9.66-88.26-41.63-122.97-14.91-16.22-33.16-30.77-54.03-43.41-7.87-4.77-18.01-3.81-25.05,2.26-7.04,6.09-9.42,15.5-5.85,24.09,4.53,11.09,5.96,23.14,4.3,35.78-4.17,30.65-29.82,56.06-62.38,61.66-55.94,9.78-128.69,33.28-157.67,89.69-6.92,13.6-8.23,28.75-3.7,42.82-8.95,8.47-16.34,16.82-22.42,24.81-7.4,5.73-59.88,47.35-88.02,112.12-14.91,34.35-11.45,73.83,9.3,105.55,21.35,32.56,57.25,52,96.01,52h380.72c38.89,0,74.79-19.44,96.14-52,20.76-31.6,24.22-71.08,9.31-105.43h0ZM238.86,454.86c26-50.57,99.59-70.25,141.1-77.53,42.94-7.51,75.62-40.2,81.34-81.34,2.03-14.91.71-29.22-3.94-42.7,17.3,10.85,32.32,23.14,44.73,36.62,32.32,35.06,44.49,82.54,31.61,123.93-12.16,39.24-44.37,66.67-90.77,77.17-92.68,21.11-156.61,23.74-189.77,7.99-7.87-3.7-13.71-10.26-16.46-18.37-2.86-8.47-2.15-17.54,2.15-25.76h0ZM226.57,507.57c4.65,5.01,10.26,9.19,16.7,12.29,17.3,8.23,40.2,12.29,69.3,12.29,35.78,0,80.75-6.2,135.49-18.73,49.85-11.33,86.95-41.27,103.77-82.78,1.07-2.39,2.15-4.65,2.98-7.16,32.68,33.75,45.44,73.47,35.9,112.59-11.33,46.99-53.44,85.28-112.59,102.57-49.14,14.31-125.71,30.54-222.56,5.73-23.74-6.2-42.94-19.44-54.03-37.21-18.97-30.89-10.5-64.28,25.04-99.59h0ZM667.17,716.9c-17.05,26-45.8,41.63-76.81,41.63H209.64c-31.01,0-59.64-15.5-76.69-41.51-16.7-25.52-19.44-56.06-7.4-83.61,11.69-26.95,28.27-49.85,43.54-67.15-.12.84-.12,1.55-.12,2.39l.36-.36c-1.55,21.71,5.6,39.36,12.88,51.05,14.19,22.9,38.29,39.84,67.87,47.47,38.65,9.9,74.19,13.6,106.15,13.6,52.96,0,96.37-10.14,128.58-19.56,62.02-18.13,107.59-57.49,124.76-106.75v.12c.12-.36.24-.71.36-.95.84-2.39,1.43-4.77,2.15-7.16.24-.84.6-1.79.84-2.62,16.7,16.94,43.89,48.54,61.79,89.93,11.8,27.56,9.17,57.97-7.53,83.5h0Z"/>
    <path d="M429.94,605.27c2.15.12,4.17.12,6.2.12,43.54,0,78.96-20.04,93.27-53.2,2.5-5.85-.12-12.64-6.09-15.15-5.85-2.5-12.64.12-15.15,6.09-11.09,25.76-40.67,40.79-77.29,39.12-6.32-.36-11.81,4.65-12.05,11.09-.24,6.2,4.65,11.57,11.1,11.93h0Z"/>
    <path d="M419.31,445.92c1.67.12,3.22.12,4.77.12,33.87,0,61.43-15.75,72.64-41.63,2.5-5.85-.12-12.64-6.09-15.15-5.85-2.5-12.64.24-15.15,6.09-7.87,18.13-28.99,28.86-55.22,27.67-6.2-.48-11.81,4.65-12.05,11.09-.23,6.2,4.66,11.57,11.1,11.8h0Z"/>
    <path d="M352.66,234.09c-4.53,4.53-4.53,11.81,0,16.34,2.26,2.26,5.25,3.34,8.23,3.34s5.96-1.07,8.23-3.34c23.97-23.97,23.97-63.1,0-87.19-7.28-7.28-11.33-16.94-11.33-27.2s4.05-19.92,11.33-27.2c4.53-4.53,4.53-11.81,0-16.34-4.53-4.53-11.81-4.53-16.34,0-11.69,11.69-18.01,27.08-18.01,43.54s6.44,31.96,18.01,43.54c14.91,15.03,14.91,39.48-.12,54.51h0Z"/>
    <path d="M444.72,163.23c-4.53,4.53-4.53,11.81,0,16.34,2.26,2.26,5.25,3.34,8.23,3.34s5.96-1.07,8.23-3.34c23.97-23.97,23.97-63.1,0-87.07-15.03-15.03-15.03-39.36,0-54.39,4.53-4.53,4.53-11.81,0-16.34-4.53-4.53-11.81-4.53-16.34,0-23.97,23.97-23.97,63.1,0,87.07,14.91,15.03,14.91,39.36-.12,54.39h0Z"/>
  </g>
  <line x1="452.94" y1="248" x2="445.64" y2="336.04" style="fill: none;"/>
</svg>