<?xml version="1.0" encoding="UTF-8"?>
<svg id="Layer_1" data-name="Layer 1" xmlns="http://www.w3.org/2000/svg" viewBox="0 0 800 800">
  <circle cx="400" cy="400" r="350" style="fill: #f6000b; opacity: .35;"/>
  <path d="M400,800c220.91,0,400-179.09,400-400S620.91,0,400,0,0,179.09,0,400s179.09,400,400,400ZM400,50c193.3,0,350,156.7,350,350s-156.7,350-350,350S50,593.3,50,400,206.7,50,400,50Z" style="opacity: .35;"/>
  <path d="M305.59,203.07c-8.3,3.61-17.61,5.52-27.26,5.52s-19.09-1.94-27.43-5.6c-2.79,4.96-7.95,8.05-13.64,8.21,1.82,21.36,19.73,38.13,41.56,38.13s39.73-16.76,41.56-38.12c-7.02,0-12.01-3.26-14.8-8.15h0Z" style="opacity: .35;"/>
  <path d="M267.66,505.1c-15.31,6.37-32.45-3.59-34.63-19.92-.78-5.88-6.25-46.9-6.9-51.79l-2.34-1.59s-.19-2.72-.19,216.87c0,14.13,11.45,25.58,25.58,25.58s25.58-11.45,25.58-25.58v-146.53l-7.1,2.95h0Z" style="opacity: .35;"/>
  <path d="M381.53,310.03c-.13-26.79-22.04-48.58-48.83-48.58h-89.23c4.4,10.59,34.37,82.65,39.1,94.03,2.27,5.47,2.28,11.49.02,16.97-.12.3-.27.59-.4.88,13.33,12.37,16.87,32.27,8.52,48.52,6.29,15.04,10.26,24.55,16.52,39.52,5.33,12.82-.76,27.59-13.58,32.92l-11.3,4.7v149.68c0,14.13,11.45,25.58,25.58,25.58s25.58-11.45,25.58-25.58v-338.41c0-1.48,1.2-2.69,2.68-2.69s2.69,1.19,2.7,2.68c.31,61.97.26,33.16.19,129.46,0,11.77,9.53,21.32,21.3,21.33h.02c11.76,0,21.31-9.53,21.32-21.3.07-96.44.12-67.58-.19-129.7h0Z" style="opacity: .35;"/>
  <path d="M270.72,360.41l-71.67-172.36,7.54-3.14c4.76-1.98,7.01-7.44,5.03-12.2s-7.44-7.01-12.2-5.03l-7.54,3.14-5.38-12.94c-1.98-4.76-7.44-7.01-12.2-5.04-4.76,1.98-7.01,7.44-5.04,12.2l35.72,85.9c-2.58-2.79-6.72-3.83-10.43-2.28-4.76,1.98-7.01,7.44-5.04,12.2,3.6,8.65,25.36,60.99,28.3,68.05l53.5,36.45c.24-1.62.07-3.33-.6-4.95h0Z" style="opacity: .35;"/>
  <path d="M295.38,466.3l-13.68-32.73c-11.04,9.95-27.01,13.34-41.55,7.93l5.6,41.98c1.07,8.06,9.51,12.88,16.98,9.77l25.99-10.81c6.3-2.62,9.28-9.85,6.66-16.14Z" style="opacity: .35;"/>
  <path d="M266.38,385.61l-62.51-42.58,2.91-5.12-20.72-49.82c-16.45,28.94-15.63,27.5-28.97,50.97-5.49,9.65-2.65,21.9,6.53,28.15l78.75,53.64c9.73,6.63,22.99,4.11,29.62-5.62,6.63-9.73,4.11-22.99-5.62-29.62h0Z" style="opacity: .35;"/>
  <path d="M329.69,194.45c-1.75-9.47-6.07-32.83-6.07-33.7,0-19.33-20.28-35-45.29-35s-43.41,14.27-45.15,32.38h-.14l-6.32,36.36c-.35,2.03,1.21,3.89,3.27,3.89h6.84c1.23,0,2.36-.68,2.94-1.77l6.07-11.49c8.23,6.56,19.74,10.63,32.5,10.63s24.08-4.01,32.3-10.47l6.06,11.34c.58,1.08,1.7,1.75,2.93,1.75h6.81c2.07,0,3.64-1.88,3.26-3.93h0Z" style="opacity: .35;"/>
  <path d="M569.52,203.07c-8.3,3.61-17.61,5.52-27.26,5.52s-19.09-1.94-27.43-5.6c-2.79,4.96-7.95,8.05-13.64,8.21,1.82,21.36,19.73,38.13,41.56,38.13s39.73-16.76,41.56-38.12c-7.01,0-12.01-3.26-14.8-8.15h.01Z" style="opacity: .35;"/>
  <path d="M531.58,505.1c-15.31,6.37-32.45-3.59-34.63-19.92-.78-5.88-6.25-46.9-6.9-51.79l-2.34-1.59s-.19-2.72-.19,216.87c0,14.13,11.45,25.58,25.58,25.58s25.58-11.45,25.58-25.58v-146.53l-7.1,2.95h0Z" style="opacity: .35;"/>
  <path d="M645.46,310.03c-.14-26.79-22.04-48.58-48.83-48.58h-89.23c4.4,10.59,34.37,82.65,39.1,94.03,2.27,5.47,2.28,11.49.02,16.97-.12.3-.27.59-.4.88,13.33,12.37,16.87,32.27,8.52,48.52,6.29,15.04,10.26,24.55,16.52,39.52,5.33,12.82-.76,27.59-13.58,32.92l-11.3,4.7v149.68c0,14.13,11.45,25.58,25.58,25.58s25.58-11.45,25.58-25.58v-338.41c0-1.48,1.2-2.69,2.68-2.69s2.69,1.19,2.7,2.68c.31,61.97.26,33.16.19,129.46,0,11.77,9.53,21.32,21.3,21.33h.02c11.76,0,21.31-9.53,21.32-21.3.07-96.44.12-67.58-.19-129.7h0Z" style="opacity: .35;"/>
  <path d="M534.65,360.41l-71.67-172.36,7.54-3.14c4.76-1.98,7.01-7.44,5.03-12.2s-7.44-7.01-12.2-5.03l-7.54,3.14-5.38-12.94c-1.98-4.76-7.44-7.01-12.2-5.04-4.76,1.98-7.01,7.44-5.04,12.2l35.72,85.9c-2.58-2.79-6.72-3.83-10.43-2.28-4.76,1.98-7.01,7.44-5.04,12.2,3.6,8.65,25.36,60.99,28.3,68.05l53.5,36.45c.24-1.62.07-3.33-.6-4.95h.01Z" style="opacity: .35;"/>
  <path d="M559.31,466.3l-13.68-32.73c-11.04,9.95-27.01,13.34-41.55,7.93l5.6,41.98c1.07,8.06,9.51,12.88,16.98,9.77l25.99-10.81c6.3-2.62,9.28-9.85,6.66-16.14Z" style="opacity: .35;"/>
  <path d="M530.3,385.61l-62.51-42.58,2.91-5.12-20.72-49.82c-16.45,28.94-15.63,27.5-28.97,50.97-5.49,9.65-2.65,21.9,6.53,28.15l78.75,53.64c9.73,6.63,23,4.11,29.62-5.62,6.63-9.73,4.11-22.99-5.62-29.62h.01Z" style="opacity: .35;"/>
  <path d="M593.62,194.45c-1.75-9.47-6.07-32.83-6.07-33.7,0-19.33-20.28-35-45.29-35s-43.41,14.27-45.15,32.38h-.14l-6.32,36.36c-.35,2.03,1.21,3.89,3.27,3.89h6.84c1.23,0,2.36-.68,2.94-1.77l6.07-11.49c8.23,6.56,19.74,10.63,32.5,10.63s24.08-4.01,32.3-10.47l6.06,11.34c.58,1.08,1.7,1.75,2.93,1.75h6.81c2.07,0,3.64-1.88,3.26-3.93h-.01Z" style="opacity: .35;"/>
</svg>