<?xml version="1.0" encoding="UTF-8"?>
<svg id="Layer_1" data-name="Layer 1" xmlns="http://www.w3.org/2000/svg" viewBox="0 0 800 800">
  <circle cx="400" cy="400" r="350" style="fill: #e91200; opacity: .85;"/>
  <path d="M400,800c220.91,0,400-179.09,400-400S620.91,0,400,0,0,179.09,0,400s179.09,400,400,400ZM400,50c193.3,0,350,156.7,350,350s-156.7,350-350,350S50,593.3,50,400,206.7,50,400,50Z" style="opacity: .85;"/>
  <g style="opacity: .85;">
    <path d="M131.29,491.28c0-.48-.06-.95-.06-1.41,0-45.56,34.7-82.63,77.34-82.63s77.34,37.08,77.34,82.63c0,1.66-.14,3.28-.23,4.91,84.9-1.05,176.77-5.42,249.8-9.74,2.36-43.31,35.99-77.8,77.11-77.8,37.28,0,68.46,28.3,75.75,65.85,53.89-11.21,41.72-35.78,42.56-50.45.9-15.9-20.02-15.9-14.56-31.8s-.91-134.6-64.61-150.5c-63.69-15.9-233.86-10.6-293.92,7.42-60.06,18.02-150.14,85.84-163.79,87.96-13.65,2.12-122.85,42.4-131.94,63.6-9.11,21.2,9.1,83.73,9.1,83.73,15.64,3.67,36.16,6.34,60.12,8.23h0Z"/>
    <path d="M208.57,418.89c-36.69,0-66.42,31.79-66.42,70.96,0,.75.08,1.47.11,2.21,1.1,38.15,30.34,68.75,66.33,68.75s63.77-29.11,66.19-65.93c.11-1.67.24-3.32.24-5.03,0-39.16-29.76-70.95-66.45-70.95h0Z"/>
    <path d="M612.6,418.89c-34.95,0-63.53,28.87-66.17,65.48-.12,1.82-.26,3.63-.26,5.49,0,39.19,29.76,70.96,66.42,70.96s66.43-31.77,66.43-70.96c0-5.1-.52-10.08-1.48-14.88-6.4-32.04-33.04-56.09-64.95-56.09h.01Z"/>
  </g>
</svg>